<?xml version="1.0" encoding="utf-8"?>
<!-- Generator: Adobe Illustrator 25.1.0, SVG Export Plug-In . SVG Version: 6.00 Build 0)  -->
<svg version="1.1" id="Layer_1" xmlns="http://www.w3.org/2000/svg" xmlns:xlink="http://www.w3.org/1999/xlink" x="0px" y="0px"
	 viewBox="0 0 192.3 226.7" style="enable-background:new 0 0 192.3 226.7;" xml:space="preserve">
<style type="text/css">
	.st0{fill:none;stroke:#000000;stroke-width:5;stroke-miterlimit:10;}
</style>
<path class="st0" d="M24.8,182.4H5.3c-1.5,0-2.8-1.2-2.8-2.8v-38.9c0-1.5,1.2-2.8,2.8-2.8h19.6"/>
<path class="st0" d="M167.7,137.9h19.5c1.4,0,2.6,1.2,2.6,2.6v39.2c0,1.4-1.2,2.6-2.6,2.6h-19.5"/>
<path class="st0" d="M96.3,48.6L96.3,48.6c-39.5,0-71.4,32-71.4,71.4v77.5c0,1.9,1.6,3.5,3.5,3.5h135.9c1.9,0,3.5-1.6,3.5-3.5v-77.5
	C167.8,80.6,135.8,48.6,96.3,48.6z"/>
<circle class="st0" cx="96.3" cy="15.5" r="13"/>
<path class="st0" d="M81.8,123.4c0-7.2-5.8-13-13-13s-13,5.8-13,13"/>
<path class="st0" d="M136.7,123.4c0-7.2-5.8-13-13-13s-13,5.8-13,13"/>
<path class="st0" d="M138.8,180.7H53.9c-9.7,0-17.7-7.9-17.7-17.7v0c0-9.7,7.9-17.7,17.7-17.7h84.9c9.7,0,17.7,7.9,17.7,17.7v0
	C156.4,172.8,148.5,180.7,138.8,180.7z"/>
<path d="M143.6,226.7H49.1c-2,0-3.7-1.6-3.7-3.7v-22.2h101.8V223C147.2,225,145.6,226.7,143.6,226.7z"/>
<line class="st0" x1="96.3" y1="28.5" x2="96.3" y2="48.6"/>
<g>
	<path d="M53.7,154.9c-2,0-3.5,1.6-3.5,3.5c0,2,1.6,3.5,3.5,3.5s3.5-1.6,3.5-3.5C57.3,156.5,55.7,154.9,53.7,154.9z"/>
	<circle cx="75" cy="158.4" r="3.5"/>
	<circle cx="96.3" cy="158.4" r="3.5"/>
	<path d="M117.6,154.9c-2,0-3.5,1.6-3.5,3.5c0,2,1.6,3.5,3.5,3.5c2,0,3.5-1.6,3.5-3.5C121.2,156.5,119.6,154.9,117.6,154.9z"/>
	<path d="M138.9,154.9c-2,0-3.5,1.6-3.5,3.5c0,2,1.6,3.5,3.5,3.5c2,0,3.5-1.6,3.5-3.5C142.4,156.5,140.9,154.9,138.9,154.9z"/>
	<path d="M64.4,165.5c-2,0-3.5,1.6-3.5,3.5c0,2,1.6,3.5,3.5,3.5c2,0,3.5-1.6,3.5-3.5C67.9,167.1,66.3,165.5,64.4,165.5z"/>
	<path d="M85.7,165.5c-2,0-3.5,1.6-3.5,3.5c0,2,1.6,3.5,3.5,3.5c2,0,3.5-1.6,3.5-3.5C89.2,167.1,87.6,165.5,85.7,165.5z"/>
	<circle cx="107" cy="169.1" r="3.5"/>
	<circle cx="128.3" cy="169.1" r="3.5"/>
</g>
</svg>
