<?xml version="1.0" encoding="utf-8"?>
<!-- Generator: Adobe Illustrator 25.1.0, SVG Export Plug-In . SVG Version: 6.00 Build 0)  -->
<svg version="1.1" id="Layer_1" xmlns="http://www.w3.org/2000/svg" xmlns:xlink="http://www.w3.org/1999/xlink" x="0px" y="0px"
	 viewBox="0 0 180.9 234.1" style="enable-background:new 0 0 180.9 234.1;" xml:space="preserve">
<style type="text/css">
	.st0{stroke:#000000;stroke-linecap:round;stroke-linejoin:round;stroke-miterlimit:10;}
	.st1{fill:none;stroke:#000000;stroke-width:5;stroke-linecap:round;stroke-linejoin:round;stroke-miterlimit:10;}
</style>
<g>
	<path class="st0" d="M135.1,111.1c0.1,1.5,0.1,3-0.1,4.5c-1.1,8.8-8.2,15.8-17,16.8c-11.7,1.3-21.7-7.8-21.7-19.3
		c0-0.6,0-1.2,0.1-1.8L135.1,111.1z"/>
	<path class="st0" d="M86.6,111.1c0.1,1.5,0.1,3-0.1,4.5c-1.1,8.8-8.2,15.8-17,16.8c-11.7,1.3-21.7-7.8-21.7-19.3
		c0-0.6,0-1.2,0.1-1.8L86.6,111.1z"/>
	<path class="st1" d="M169.1,82.4c0-44.1-34.9-79.9-77.9-79.9S13.2,38.3,13.2,82.4c0,23.2,9.6,44.1,25,58.7h0v19.7
		c0,3.1,2.5,5.6,5.6,5.6h94.5l0,0c3.1,0,5.6-2.5,5.6-5.6v-19.7C159.4,126.5,169.1,105.6,169.1,82.4z"/>
	<g>
		<path class="st0" d="M152.7,205.2c1.6-5.5,2.7-11.9,3.1-19.4c-5.3,5.7-10.1,10.1-14.3,13.4C143.9,204.3,147.7,206.3,152.7,205.2z"
			/>
		<path class="st0" d="M129,224.3c-12.8-10.8-18.9-34.4-15.8-57.9h2.5l0,0H90.6c-3.1,23.5,3,47.1,15.8,57.9c8.9,7.5,20,9.5,29.6,4.5
			C133.5,227.7,131.2,226.2,129,224.3z"/>
	</g>
	<g>
		<path class="st0" d="M39.5,199.2c-4.3-3.2-9-7.7-14.3-13.4c0.4,7.4,1.5,13.9,3.1,19.4C33.3,206.3,37,204.3,39.5,199.2z"/>
		<path class="st0" d="M90.3,166.5H67.7c3.1,23.5-3,47.1-15.8,57.9c-2.2,1.8-4.5,3.3-6.9,4.5c9.5,5,20.7,3,29.6-4.5
			C87.4,213.5,93.4,189.9,90.3,166.5z"/>
	</g>
	<g>
		<path d="M21.2,60.9c-0.3,1.9,1,3.7,3,4c1.9,0.3,3.7-1,4-3c0.3-1.9-1-3.7-3-4S21.5,59,21.2,60.9z"/>
		<path d="M24.4,39.9c-0.3,1.9,1,3.7,3,4s3.7-1,4-3c0.3-1.9-1-3.7-3-4S24.7,37.9,24.4,39.9z"/>
		<ellipse transform="matrix(0.1492 -0.9888 0.9888 0.1492 -44.105 95.8721)" cx="33.7" cy="73.6" rx="3.5" ry="3.5"/>
		<ellipse transform="matrix(0.1492 -0.9888 0.9888 0.1492 -20.5873 81.103)" cx="36.8" cy="52.5" rx="3.5" ry="3.5"/>
		<path d="M36.5,30.9c-0.3,1.9,1,3.7,3,4s3.7-1,4-3c0.3-1.9-1-3.7-3-4S36.8,29,36.5,30.9z"/>
		<ellipse transform="matrix(0.1492 -0.9888 0.9888 0.1492 -48.4793 115.0155)" cx="42.6" cy="85.7" rx="3.5" ry="3.5"/>
		<path d="M42.3,64.1c-0.3,1.9,1,3.7,3,4c1.9,0.3,3.7-1,4-3c0.3-1.9-1-3.7-3-4S42.6,62.2,42.3,64.1z"/>
		<path d="M45.4,43c-0.3,1.9,1,3.7,3,4s3.7-1,4-3c0.3-1.9-1-3.7-3-4C47.5,39.8,45.7,41.1,45.4,43z"/>
		<ellipse transform="matrix(0.1492 -0.9888 0.9888 0.1492 22.0738 70.7084)" cx="52.1" cy="22.5" rx="3.5" ry="3.5"/>
		<ellipse transform="matrix(0.1492 -0.9888 0.9888 0.1492 -33.7101 138.5334)" cx="63.6" cy="88.9" rx="3.5" ry="3.5"/>
		<ellipse transform="matrix(0.1492 -0.9888 0.9888 0.1492 36.8428 94.2262)" cx="73.2" cy="25.7" rx="3.5" ry="3.5"/>
		<path d="M72.8,4.1c-0.3,1.9,1,3.7,3,4c1.9,0.3,3.7-1,4-3C80.2,3.2,73.1,2.2,72.8,4.1z"/>
		<path d="M48,97.3c-0.3,1.9,1,3.7,3,4c1.9,0.3,3.7-1,4-3c0.3-1.9-1-3.7-3-4C50.1,94,48.3,95.3,48,97.3z"/>
		<path d="M17.7,82.9c-0.3,1.9,1,3.7,3,4c1.9,0.3,3.7-1,4-3s-1-3.7-3-4C19.8,79.6,18,81,17.7,82.9z"/>
		<ellipse transform="matrix(0.1492 -0.9888 0.9888 0.1492 -68.8593 111.0647)" cx="30.1" cy="95.5" rx="3.5" ry="3.5"/>
		<ellipse transform="matrix(0.1492 -0.9888 0.9888 0.1492 -73.2337 130.208)" cx="39" cy="107.7" rx="3.5" ry="3.5"/>
		<ellipse transform="matrix(0.1492 -0.9888 0.9888 0.1492 -88.5884 106.8221)" cx="17.8" cy="104.9" rx="3.5" ry="3.5"/>
		<ellipse transform="matrix(0.1492 -0.9888 0.9888 0.1492 -98.1878 144.12)" cx="34.7" cy="129.1" rx="3.5" ry="3.5"/>
		<path d="M22.2,116.5c-0.3,1.9,1,3.7,3,4c1.9,0.3,3.7-1,4-3s-1-3.7-3-4C24.3,113.2,22.5,114.5,22.2,116.5z"/>
		<ellipse transform="matrix(0.1492 -0.9888 0.9888 0.1492 -29.3358 119.3899)" cx="54.7" cy="76.7" rx="3.5" ry="3.5"/>
		<ellipse transform="matrix(0.1492 -0.9888 0.9888 0.1492 -5.8181 104.6209)" cx="57.9" cy="55.7" rx="3.5" ry="3.5"/>
		<path d="M57.6,34.1c-0.3,1.9,1,3.7,3,4s3.7-1,4-3c0.3-1.9-1-3.7-3-4S57.8,32.2,57.6,34.1z"/>
		<path d="M60.7,13.1c-0.3,1.9,1,3.7,3,4c1.9,0.3,3.7-1,4-3c0.3-1.9-1-3.7-3-4C62.8,9.8,61,11.1,60.7,13.1z"/>
		<path d="M81.8,16.2c-0.3,1.9,1,3.7,3,4c1.9,0.3,3.7-1,4-3c0.3-1.9-1-3.7-3-4C83.9,13,82.1,14.3,81.8,16.2z"/>
	</g>
	<path class="st1" d="M178.4,185.8c-2.5,46.2-31,54.1-49.4,38.5c-12.8-10.8-18.9-34.4-15.8-57.9h25.2
		C135.7,211.3,149.3,217.1,178.4,185.8z"/>
	<path class="st1" d="M2.5,185.8c2.5,46.2,31,54.1,49.4,38.5c12.8-10.8,18.9-34.4,15.8-57.9H42.5C45.3,211.3,31.6,217.1,2.5,185.8z"
		/>
</g>
</svg>
